<svg width="48" height="48" viewBox="0 0 48 48" fill="none" xmlns="http://www.w3.org/2000/svg">
<path d="M26.4295 38.5339C26.4726 34.1282 25.3556 30.5455 23.9348 30.5315C22.5139 30.5177 21.3272 34.078 21.2842 38.4836C21.2411 42.8893 22.358 46.4722 23.7788 46.486C25.1997 46.4999 26.3865 42.9396 26.4295 38.5339Z" fill="url(#paint0_linear_594_4258)"/>
<path d="M18.1892 37.5333C20.6076 33.8504 21.6051 30.2325 20.4174 29.4526C19.2296 28.6727 16.3063 31.026 13.888 34.709C11.4697 38.3919 10.4722 42.0097 11.6599 42.7897C12.8477 43.5696 15.7709 41.2163 18.1892 37.5333Z" fill="url(#paint1_linear_594_4258)"/>
<path d="M11.7882 32.2493C15.8138 30.4587 18.609 27.9546 18.0315 26.6563C17.4541 25.358 13.7226 25.7572 9.69689 27.5479C5.67126 29.3385 2.876 31.8425 3.45349 33.1408C4.03097 34.4391 7.76253 34.04 11.7882 32.2493Z" fill="url(#paint2_linear_594_4258)"/>
<path d="M17.5481 23.0155C17.7643 21.6111 14.4094 19.9293 10.0549 19.259C5.70019 18.5888 1.99484 19.184 1.77868 20.5883C1.56253 21.9927 4.91742 23.6745 9.27206 24.3447C13.6266 25.015 17.332 24.4198 17.5481 23.0155Z" fill="url(#paint3_linear_594_4258)"/>
<path d="M19.1116 19.6699C20.0526 18.6053 18.1392 15.3769 14.8378 12.4592C11.5365 9.54145 8.09739 8.03928 7.15642 9.10398C6.21544 10.1687 8.12892 13.3971 11.4303 16.3148C14.7316 19.2325 18.1707 20.7346 19.1116 19.6699Z" fill="url(#paint4_linear_594_4258)"/>
<path d="M22.2254 17.7147C23.5926 17.3278 23.7285 13.5774 22.5288 9.33796C21.3292 5.09851 19.2483 1.9754 17.8811 2.36229C16.5139 2.74918 16.378 6.49955 17.5776 10.739C18.7773 14.9784 20.8582 18.1016 22.2254 17.7147Z" fill="url(#paint5_linear_594_4258)"/>
<path d="M30.68 10.8709C31.963 6.65597 31.9012 2.90363 30.5418 2.48987C29.1825 2.07609 27.0404 5.15755 25.7574 9.37252C24.4744 13.5875 24.5363 17.3398 25.8956 17.7536C27.255 18.1673 29.397 15.0859 30.68 10.8709Z" fill="url(#paint6_linear_594_4258)"/>
<path d="M36.7214 16.5662C40.0792 13.7136 42.0554 10.5232 41.1354 9.44038C40.2154 8.3575 36.7476 9.79219 33.3899 12.6447C30.0321 15.4974 28.0559 18.6877 28.9759 19.7706C29.8959 20.8535 33.3637 19.4189 36.7214 16.5662Z" fill="url(#paint7_linear_594_4258)"/>
<path d="M38.719 24.6258C43.086 24.0416 46.4734 22.4263 46.2849 21.0179C46.0966 19.6095 42.4036 18.9415 38.0366 19.5256C33.6696 20.1099 30.2822 21.7252 30.4706 23.1336C30.6591 24.5419 34.3519 25.2101 38.719 24.6258Z" fill="url(#paint8_linear_594_4258)"/>
<path d="M44.3524 33.5434C44.9554 32.2568 42.2101 29.6981 38.2205 27.8284C34.231 25.9587 30.508 25.4861 29.9051 26.7727C29.3021 28.0594 32.0474 30.618 36.037 32.4877C40.0264 34.3573 43.7494 34.8301 44.3524 33.5434Z" fill="url(#paint9_linear_594_4258)"/>
<path d="M35.9606 43.0367C37.1635 42.2804 36.2375 38.6435 33.8923 34.9137C31.5471 31.1838 28.6708 28.7733 27.4679 29.5296C26.265 30.2859 27.191 33.9227 29.5362 37.6526C31.8814 41.3825 34.7578 43.7931 35.9606 43.0367Z" fill="url(#paint10_linear_594_4258)"/>
<defs>
<linearGradient id="paint0_linear_594_4258" x1="26.2366" y1="26.0111" x2="20.1718" y2="26.4166" gradientUnits="userSpaceOnUse">
<stop stop-color="#5E9319"/>
<stop offset="1" stop-color="#264400"/>
</linearGradient>
<linearGradient id="paint1_linear_594_4258" x1="20.5501" y1="25.4399" x2="9.24985" y2="27.116" gradientUnits="userSpaceOnUse">
<stop stop-color="#5E9319"/>
<stop offset="1" stop-color="#264400"/>
</linearGradient>
<linearGradient id="paint2_linear_594_4258" x1="17.5517" y1="23.624" x2="2.33128" y2="29.4241" gradientUnits="userSpaceOnUse">
<stop stop-color="#5E9319"/>
<stop offset="1" stop-color="#264400"/>
</linearGradient>
<linearGradient id="paint3_linear_594_4258" x1="16.9626" y1="17.3866" x2="2.98735" y2="25.4997" gradientUnits="userSpaceOnUse">
<stop stop-color="#5E9319"/>
<stop offset="1" stop-color="#264400"/>
</linearGradient>
<linearGradient id="paint4_linear_594_4258" x1="18.8824" y1="5.57406" x2="4.90072" y2="8.7766" gradientUnits="userSpaceOnUse">
<stop stop-color="#5E9319"/>
<stop offset="1" stop-color="#264400"/>
</linearGradient>
<linearGradient id="paint5_linear_594_4258" x1="23.0983" y1="-2.03831" x2="15.3639" y2="-1.35347" gradientUnits="userSpaceOnUse">
<stop stop-color="#5E9319"/>
<stop offset="1" stop-color="#264400"/>
</linearGradient>
<linearGradient id="paint6_linear_594_4258" x1="31.348" y1="-1.8932" x2="23.4039" y2="-1.16664" gradientUnits="userSpaceOnUse">
<stop stop-color="#5E9319"/>
<stop offset="1" stop-color="#264400"/>
</linearGradient>
<linearGradient id="paint7_linear_594_4258" x1="40.8855" y1="5.94771" x2="26.752" y2="9.28974" gradientUnits="userSpaceOnUse">
<stop stop-color="#5E9319"/>
<stop offset="1" stop-color="#264400"/>
</linearGradient>
<linearGradient id="paint8_linear_594_4258" x1="45.6955" y1="17.7494" x2="31.8482" y2="25.9742" gradientUnits="userSpaceOnUse">
<stop stop-color="#5E9319"/>
<stop offset="1" stop-color="#264400"/>
</linearGradient>
<linearGradient id="paint9_linear_594_4258" x1="43.8844" y1="23.7192" x2="28.6577" y2="29.3294" gradientUnits="userSpaceOnUse">
<stop stop-color="#5E9319"/>
<stop offset="1" stop-color="#264400"/>
</linearGradient>
<linearGradient id="paint10_linear_594_4258" x1="36.1276" y1="25.4851" x2="25.0579" y2="27.0739" gradientUnits="userSpaceOnUse">
<stop stop-color="#5E9319"/>
<stop offset="1" stop-color="#264400"/>
</linearGradient>
</defs>
</svg>
