<svg width="80" height="80" viewBox="0 0 80 80" fill="none" xmlns="http://www.w3.org/2000/svg">
<path d="M44.0492 64.2232C44.121 56.8803 42.2594 50.9091 39.8914 50.8859C37.5233 50.8629 35.5454 56.7967 35.4737 64.1394C35.4019 71.4823 37.2634 77.4536 39.6314 77.4767C41.9996 77.4999 43.9775 71.5661 44.0492 64.2232Z" fill="#111827"/>
<path d="M30.3151 62.5555C34.3457 56.4173 36.0083 50.3875 34.0287 49.0877C32.0491 47.7878 27.1769 51.7101 23.1465 57.8483C19.1159 63.9865 17.4534 70.0161 19.4329 71.3161C21.4126 72.616 26.2846 68.6937 30.3151 62.5555Z" fill="#111827"/>
<path d="M19.6467 53.7488C26.3561 50.7645 31.0148 46.591 30.0523 44.4272C29.0899 42.2633 22.8707 42.9286 16.1612 45.9131C9.45186 48.8974 4.79309 53.0709 5.75557 55.2347C6.71804 57.3985 12.9373 56.7333 19.6467 53.7488Z" fill="#111827"/>
<path d="M29.247 38.3592C29.6073 36.0186 24.0158 33.2155 16.7582 32.0984C9.50044 30.9813 3.32485 31.9733 2.9646 34.3139C2.60434 36.6546 8.19583 39.4575 15.4536 40.5746C22.7112 41.6917 28.8869 40.6997 29.247 38.3592Z" fill="#111827"/>
<path d="M31.8529 32.7832C33.4212 31.0088 30.2321 25.6282 24.7299 20.7653C19.2276 15.9024 13.4958 13.3988 11.9275 15.1733C10.3592 16.9478 13.5484 22.3285 19.0507 27.1914C24.5529 32.0542 30.2847 34.5578 31.8529 32.7832Z" fill="#111827"/>
<path d="M37.0422 29.5245C39.321 28.8797 39.5474 22.629 37.548 15.5633C35.5486 8.49754 32.0805 3.29236 29.8018 3.93717C27.523 4.58199 27.2966 10.8326 29.296 17.8984C31.2954 24.964 34.7635 30.1693 37.0422 29.5245Z" fill="#111827"/>
<path d="M51.1336 18.1182C53.272 11.0933 53.1689 4.8394 50.9033 4.14978C48.6377 3.46015 45.0676 8.59592 42.9292 15.6209C40.791 22.6458 40.894 28.8997 43.1596 29.5893C45.4252 30.2789 48.9953 25.1432 51.1336 18.1182Z" fill="#111827"/>
<path d="M61.2022 27.6104C66.7985 22.856 70.0923 17.5387 68.5588 15.734C67.0256 13.9292 61.2459 16.3203 55.6497 21.0745C50.0534 25.8289 46.7598 31.1462 48.2931 32.951C49.8264 34.7558 55.606 32.3648 61.2022 27.6104Z" fill="#111827"/>
<path d="M64.5314 41.043C71.8098 40.0693 77.4554 37.3771 77.1413 35.0297C76.8274 32.6825 70.6725 31.5691 63.3941 32.5427C56.1159 33.5165 50.4701 36.2086 50.7842 38.556C51.0983 40.9032 57.253 42.0168 64.5314 41.043Z" fill="#111827"/>
<path d="M73.9207 55.9056C74.9256 53.7613 70.3501 49.4968 63.7008 46.3807C57.0517 43.2645 50.8467 42.4768 49.8418 44.6211C48.8368 46.7656 53.4123 51.0301 60.0616 54.1463C66.7107 57.2623 72.9157 58.0501 73.9207 55.9056Z" fill="#111827"/>
<path d="M59.9343 71.7278C61.9391 70.4673 60.3957 64.4059 56.4871 58.1894C52.5784 51.9729 47.7845 47.9555 45.7797 49.216C43.7749 50.4765 45.3183 56.5379 49.2269 62.7544C53.1355 68.9709 57.9295 72.9885 59.9343 71.7278Z" fill="#111827"/>
</svg>
