<svg width="48" height="48" viewBox="0 0 48 48" fill="none" xmlns="http://www.w3.org/2000/svg">
<path d="M26.4296 38.5337C26.4727 34.1279 25.3557 30.5452 23.9349 30.5313C22.514 30.5175 21.3273 34.0777 21.2843 38.4834C21.2412 42.8891 22.3581 46.4719 23.7789 46.4857C25.1998 46.4996 26.3866 42.9394 26.4296 38.5337Z" fill="#FDFDFD"/>
<path d="M18.1891 37.5337C20.6074 33.8507 21.605 30.2329 20.4173 29.453C19.2295 28.6731 16.3062 31.0264 13.8879 34.7094C11.4696 38.3923 10.4721 42.0101 11.6598 42.7901C12.8476 43.57 15.7708 41.2166 18.1891 37.5337Z" fill="#FDFDFD"/>
<path d="M11.788 32.2493C15.8137 30.4587 18.6089 27.9547 18.0314 26.6564C17.454 25.3581 13.7224 25.7572 9.69677 27.5479C5.67114 29.3385 2.87588 31.8426 3.45337 33.1409C4.03085 34.4392 7.76241 34.04 11.788 32.2493Z" fill="#FDFDFD"/>
<path d="M17.5483 23.0153C17.7645 21.6109 14.4095 19.9291 10.055 19.2588C5.70031 18.5885 1.99496 19.1837 1.77881 20.5881C1.56265 21.9925 4.91755 23.6742 9.27218 24.3445C13.6268 25.0148 17.3322 24.4196 17.5483 23.0153Z" fill="#FDFDFD"/>
<path d="M19.1116 19.6699C20.0526 18.6053 18.1392 15.3769 14.8378 12.4592C11.5365 9.54147 8.09739 8.0393 7.15642 9.104C6.21544 10.1687 8.12892 13.3971 11.4303 16.3148C14.7316 19.2326 18.1707 20.7347 19.1116 19.6699Z" fill="#FDFDFD"/>
<path d="M22.2254 17.7149C23.5926 17.328 23.7285 13.5776 22.5288 9.33814C21.3292 5.0987 19.2483 1.97558 17.8811 2.36247C16.5139 2.74936 16.378 6.49974 17.5776 10.7392C18.7773 14.9786 20.8582 18.1018 22.2254 17.7149Z" fill="#FDFDFD"/>
<path d="M30.6801 10.8705C31.9631 6.65549 31.9013 2.90316 30.542 2.48939C29.1826 2.07561 27.0406 5.15708 25.7575 9.37204C24.4746 13.587 24.5364 17.3393 25.8958 17.7531C27.2551 18.1669 29.3972 15.0854 30.6801 10.8705Z" fill="#FDFDFD"/>
<path d="M36.7214 16.5661C40.0792 13.7134 42.0554 10.5231 41.1354 9.44023C40.2154 8.35735 36.7476 9.79204 33.3899 12.6446C30.0321 15.4972 28.0559 18.6876 28.9759 19.7705C29.8959 20.8533 33.3637 19.4187 36.7214 16.5661Z" fill="#FDFDFD"/>
<path d="M38.719 24.626C43.086 24.0418 46.4734 22.4265 46.2849 21.0181C46.0966 19.6098 42.4036 18.9417 38.0366 19.5258C33.6696 20.1101 30.2822 21.7254 30.4706 23.1338C30.6591 24.5421 34.3519 25.2103 38.719 24.626Z" fill="#FDFDFD"/>
<path d="M44.3524 33.543C44.9554 32.2564 42.2101 29.6978 38.2205 27.8281C34.231 25.9584 30.508 25.4858 29.9051 26.7724C29.3021 28.059 32.0474 30.6177 36.037 32.4874C40.0264 34.357 43.7494 34.8297 44.3524 33.543Z" fill="#FDFDFD"/>
<path d="M35.9605 43.0365C37.1634 42.2802 36.2374 38.6434 33.8922 34.9135C31.547 31.1836 28.6707 28.7731 27.4678 29.5294C26.2649 30.2857 27.1909 33.9226 29.5361 37.6524C31.8813 41.3823 34.7576 43.7929 35.9605 43.0365Z" fill="#FDFDFD"/>
</svg>
