<svg width="121" height="121" viewBox="0 0 121 121" fill="none" xmlns="http://www.w3.org/2000/svg">
<rect width="121" height="121" rx="60.5" fill="url(#paint0_linear_127_4122)"/>
<g clip-path="url(#clip0_127_4122)">
<path d="M78.3047 76.485L88.1022 66.6875C89.6931 65.0203 90.5808 62.8044 90.5808 60.5C90.5808 58.1955 89.6931 55.9796 88.1022 54.3125L78.3047 44.515C77.6016 43.8115 76.6477 43.4161 75.6531 43.4159C74.6584 43.4157 73.7044 43.8106 73.001 44.5137C72.2975 45.2169 71.9021 46.1707 71.9019 47.1653C71.9017 48.16 72.2966 49.114 72.9997 49.8175L79.9497 56.77L34.3247 56.8275C33.3301 56.8275 32.3763 57.2226 31.6731 57.9258C30.9698 58.6291 30.5747 59.5829 30.5747 60.5775C30.5747 61.572 30.9698 62.5259 31.6731 63.2291C32.3763 63.9324 33.3301 64.3275 34.3247 64.3275L79.9022 64.27L72.9997 71.1825C72.3166 71.8897 71.9386 72.837 71.9472 73.8202C71.9557 74.8035 72.3501 75.744 73.0454 76.4393C73.7407 77.1346 74.6812 77.529 75.6645 77.5375C76.6477 77.5461 77.595 77.1681 78.3022 76.485H78.3047Z" fill="#FDFDFD"/>
</g>
<defs>
<linearGradient id="paint0_linear_127_4122" x1="116.437" y1="-34.2833" x2="-20.8592" y2="-5.8298" gradientUnits="userSpaceOnUse">
<stop stop-color="#5E9319"/>
<stop offset="1" stop-color="#264400"/>
</linearGradient>
<clipPath id="clip0_127_4122">
<rect width="60" height="60" fill="white" transform="translate(30.5 30.5)"/>
</clipPath>
</defs>
</svg>
