<svg width="382" height="64" viewBox="0 0 382 64" fill="none" xmlns="http://www.w3.org/2000/svg">
<path d="M58.6663 31.9997C58.6663 17.2797 46.7197 5.33301 31.9997 5.33301C17.2797 5.33301 5.33301 17.2797 5.33301 31.9997C5.33301 44.9063 14.5063 55.653 26.6663 58.133V39.9997H21.333V31.9997H26.6663V25.333C26.6663 20.1863 30.853 15.9997 35.9997 15.9997H42.6663V23.9997H37.333C35.8663 23.9997 34.6663 25.1997 34.6663 26.6663V31.9997H42.6663V39.9997H34.6663V58.533C48.133 57.1997 58.6663 45.8397 58.6663 31.9997Z" fill="#5E9319"/>
<path d="M138 23.333C135.701 23.333 133.497 24.2461 131.871 25.8714C130.246 27.4967 129.333 29.7011 129.333 31.9997C129.333 34.2982 130.246 36.5026 131.871 38.1279C133.497 39.7532 135.701 40.6663 138 40.6663C140.298 40.6663 142.503 39.7532 144.128 38.1279C145.753 36.5026 146.666 34.2982 146.666 31.9997C146.666 29.7011 145.753 27.4967 144.128 25.8714C142.503 24.2461 140.298 23.333 138 23.333Z" fill="#5E9319"/>
<path fill-rule="evenodd" clip-rule="evenodd" d="M124.053 8.21884C133.323 7.19138 142.677 7.19138 151.947 8.21884C157.011 8.78417 161.093 12.7708 161.688 17.8535C162.787 27.2526 162.787 36.7478 161.688 46.1468C161.093 51.2295 157.011 55.2162 151.949 55.7842C142.679 56.8119 133.323 56.8119 124.053 55.7842C118.989 55.2162 114.907 51.2295 114.312 46.1495C113.212 36.7495 113.212 27.2535 114.312 17.8535C114.907 12.7708 118.989 8.78417 124.053 8.21884ZM151.333 16.0002C150.626 16.0002 149.948 16.2811 149.448 16.7812C148.947 17.2813 148.667 17.9596 148.667 18.6668C148.667 19.3741 148.947 20.0524 149.448 20.5525C149.948 21.0526 150.626 21.3335 151.333 21.3335C152.04 21.3335 152.719 21.0526 153.219 20.5525C153.719 20.0524 154 19.3741 154 18.6668C154 17.9596 153.719 17.2813 153.219 16.7812C152.719 16.2811 152.04 16.0002 151.333 16.0002ZM125.333 32.0002C125.333 28.6408 126.668 25.4189 129.043 23.0435C131.419 20.668 134.64 19.3335 138 19.3335C141.359 19.3335 144.581 20.668 146.957 23.0435C149.332 25.4189 150.667 28.6408 150.667 32.0002C150.667 35.3596 149.332 38.5814 146.957 40.9569C144.581 43.3323 141.359 44.6668 138 44.6668C134.64 44.6668 131.419 43.3323 129.043 40.9569C126.668 38.5814 125.333 35.3596 125.333 32.0002Z" fill="#5E9319"/>
<path d="M244 4C228.538 4 216 16.5375 216 32C216 47.4625 228.538 60 244 60C259.463 60 272 47.4625 272 32C272 16.5375 259.463 4 244 4ZM257.456 25.1063C257.475 25.4 257.475 25.7063 257.475 26.0063C257.475 35.1813 250.487 45.75 237.719 45.75C233.781 45.75 230.131 44.6063 227.056 42.6375C227.619 42.7 228.156 42.725 228.731 42.725C231.981 42.725 234.969 41.625 237.35 39.7625C234.3 39.7 231.737 37.7 230.862 34.95C231.931 35.1063 232.894 35.1063 233.994 34.825C232.423 34.5059 231.012 33.653 229.999 32.4111C228.986 31.1693 228.434 29.615 228.438 28.0125V27.925C229.356 28.4437 230.438 28.7625 231.569 28.8062C230.618 28.1725 229.838 27.3138 229.298 26.3064C228.759 25.2991 228.476 24.1741 228.475 23.0312C228.475 21.7375 228.813 20.5562 229.419 19.5312C231.162 21.6771 233.337 23.4321 235.803 24.6823C238.269 25.9324 240.97 26.6497 243.731 26.7875C242.75 22.0688 246.275 18.25 250.513 18.25C252.513 18.25 254.312 19.0875 255.581 20.4375C257.15 20.1437 258.65 19.5562 259.987 18.7687C259.469 20.375 258.381 21.7312 256.938 22.5875C258.338 22.4375 259.688 22.05 260.938 21.5063C259.994 22.8938 258.812 24.125 257.456 25.1063Z" fill="#5E9319"/>
<path d="M344.666 39.9997L358.506 31.9997L344.666 23.9997V39.9997ZM375.493 19.1197C375.84 20.373 376.08 22.053 376.24 24.1863C376.426 26.3197 376.506 28.1597 376.506 29.7597L376.666 31.9997C376.666 37.8397 376.24 42.133 375.493 44.8797C374.826 47.2797 373.28 48.8263 370.88 49.493C369.626 49.8397 367.333 50.0797 363.813 50.2397C360.346 50.4263 357.173 50.5064 354.24 50.5064L350 50.6663C338.826 50.6663 331.866 50.2397 329.12 49.493C326.72 48.8263 325.173 47.2797 324.506 44.8797C324.16 43.6263 323.92 41.9463 323.76 39.813C323.573 37.6797 323.493 35.8397 323.493 34.2397L323.333 31.9997C323.333 26.1597 323.76 21.8663 324.506 19.1197C325.173 16.7197 326.72 15.173 329.12 14.5063C330.373 14.1597 332.666 13.9197 336.186 13.7597C339.653 13.573 342.826 13.493 345.76 13.493L350 13.333C361.173 13.333 368.133 13.7597 370.88 14.5063C373.28 15.173 374.826 16.7197 375.493 19.1197Z" fill="#5E9319"/>
</svg>
