<svg width="24" height="22" viewBox="0 0 24 22" fill="none" xmlns="http://www.w3.org/2000/svg">
<path d="M23.2668 8.40753C22.3644 6.92978 21.2261 5.6098 19.8971 4.49998L22.696 1.70104C23.0796 1.30392 23.0685 0.671106 22.6714 0.287576C22.284 -0.0865815 21.6699 -0.0865815 21.2825 0.287576L18.2386 3.33543C16.3517 2.21469 14.1946 1.63052 12 1.64607C5.81126 1.64607 2.28457 5.88252 0.733158 8.40758C-0.244386 9.98869 -0.244386 11.9865 0.733158 13.5677C1.63559 15.0454 2.7739 16.3654 4.10292 17.4752L1.30398 20.2742C0.906859 20.6577 0.895847 21.2906 1.27938 21.6876C1.66291 22.0848 2.29577 22.0958 2.69284 21.7122C2.70118 21.7042 2.70938 21.696 2.71744 21.6876L5.76829 18.6368C7.65285 19.7574 9.80746 20.3425 12 20.3291C18.1887 20.3291 21.7154 16.0927 23.2668 13.5676C24.2444 11.9865 24.2444 9.98869 23.2668 8.40753ZM6.00225 10.9876C5.99658 7.68063 8.67276 4.99522 11.9797 4.98955C13.231 4.98739 14.4515 5.3773 15.4697 6.10443L14.0183 7.55589C13.4089 7.18844 12.7116 6.99257 12 6.9891C9.79172 6.9891 8.00152 8.7793 8.00152 10.9876C8.00499 11.6991 8.20086 12.3965 8.56831 13.0059L7.11685 14.4573C6.39206 13.4455 6.0023 12.2322 6.00225 10.9876ZM12 16.9854C10.7554 16.9853 9.54211 16.5956 8.53031 15.8708L9.98177 14.4193C10.5911 14.7868 11.2885 14.9826 12 14.9861C14.2083 14.9861 15.9985 13.1959 15.9985 10.9876C15.9951 10.2761 15.7992 9.57869 15.4317 8.96935L16.8832 7.51789C18.805 10.2091 18.1812 13.9487 15.49 15.8705C14.4718 16.5976 13.2513 16.9875 12 16.9854Z" fill="#111827"/>
</svg>
