<svg width="24" height="20" viewBox="0 0 24 20" fill="none" xmlns="http://www.w3.org/2000/svg">
<path d="M12 13.9985C14.2083 13.9985 15.9985 12.2083 15.9985 9.99996C15.9985 7.79165 14.2083 6.00146 12 6.00146C9.79165 6.00146 8.00146 7.79165 8.00146 9.99996C8.00146 12.2083 9.79165 13.9985 12 13.9985Z" fill="#374957"/>
<path d="M23.2669 7.42008C21.7164 4.89501 18.1897 0.658569 12 0.658569C5.81034 0.658569 2.28364 4.89501 0.733219 7.42008C-0.244325 9.00119 -0.244325 10.999 0.733219 12.5802C2.28364 15.1052 5.81034 19.3417 12 19.3417C18.1897 19.3417 21.7164 15.1052 23.2669 12.5802C24.2444 10.999 24.2444 9.00119 23.2669 7.42008ZM12 15.9979C8.68758 15.9979 6.00226 13.3126 6.00226 10.0001C6.00226 6.68764 8.68758 4.00233 12 4.00233C15.3125 4.00233 17.9978 6.68764 17.9978 10.0001C17.9945 13.3112 15.3111 15.9945 12 15.9979Z" fill="#374957"/>
</svg>
