<svg width="176" height="48" viewBox="0 0 176 48" fill="none" xmlns="http://www.w3.org/2000/svg">
<path d="M26.4296 38.5337C26.4727 34.1279 25.3557 30.5452 23.9349 30.5313C22.514 30.5175 21.3273 34.0777 21.2843 38.4834C21.2412 42.8891 22.3581 46.4719 23.7789 46.4857C25.1998 46.4996 26.3866 42.9394 26.4296 38.5337Z" fill="url(#paint0_linear_169_4082)"/>
<path d="M18.1891 37.5337C20.6074 33.8507 21.605 30.2329 20.4173 29.453C19.2295 28.6731 16.3062 31.0264 13.8879 34.7094C11.4696 38.3923 10.4721 42.0101 11.6598 42.7901C12.8476 43.57 15.7708 41.2166 18.1891 37.5337Z" fill="url(#paint1_linear_169_4082)"/>
<path d="M11.788 32.2493C15.8137 30.4587 18.6089 27.9547 18.0314 26.6564C17.454 25.3581 13.7224 25.7572 9.69677 27.5479C5.67114 29.3385 2.87588 31.8426 3.45337 33.1409C4.03085 34.4392 7.76241 34.04 11.788 32.2493Z" fill="url(#paint2_linear_169_4082)"/>
<path d="M17.5483 23.0153C17.7645 21.6109 14.4095 19.9291 10.055 19.2588C5.70031 18.5885 1.99496 19.1837 1.77881 20.5881C1.56265 21.9925 4.91755 23.6742 9.27218 24.3445C13.6268 25.0148 17.3322 24.4196 17.5483 23.0153Z" fill="url(#paint3_linear_169_4082)"/>
<path d="M19.1116 19.6699C20.0526 18.6053 18.1392 15.3769 14.8378 12.4592C11.5365 9.54147 8.09739 8.0393 7.15642 9.104C6.21544 10.1687 8.12892 13.3971 11.4303 16.3148C14.7316 19.2326 18.1707 20.7347 19.1116 19.6699Z" fill="url(#paint4_linear_169_4082)"/>
<path d="M22.2254 17.7149C23.5926 17.328 23.7285 13.5776 22.5288 9.33814C21.3292 5.0987 19.2483 1.97558 17.8811 2.36247C16.5139 2.74936 16.378 6.49974 17.5776 10.7392C18.7773 14.9786 20.8582 18.1018 22.2254 17.7149Z" fill="url(#paint5_linear_169_4082)"/>
<path d="M30.6801 10.8705C31.9631 6.65549 31.9013 2.90316 30.542 2.48939C29.1826 2.07561 27.0406 5.15708 25.7575 9.37204C24.4746 13.587 24.5364 17.3393 25.8958 17.7531C27.2551 18.1669 29.3972 15.0854 30.6801 10.8705Z" fill="url(#paint6_linear_169_4082)"/>
<path d="M36.7214 16.5661C40.0792 13.7134 42.0554 10.5231 41.1354 9.44023C40.2154 8.35735 36.7476 9.79204 33.3899 12.6446C30.0321 15.4972 28.0559 18.6876 28.9759 19.7705C29.8959 20.8533 33.3637 19.4187 36.7214 16.5661Z" fill="url(#paint7_linear_169_4082)"/>
<path d="M38.719 24.626C43.086 24.0418 46.4734 22.4265 46.2849 21.0181C46.0966 19.6098 42.4036 18.9417 38.0366 19.5258C33.6696 20.1101 30.2822 21.7254 30.4706 23.1338C30.6591 24.5421 34.3519 25.2103 38.719 24.626Z" fill="url(#paint8_linear_169_4082)"/>
<path d="M44.3524 33.543C44.9554 32.2564 42.2101 29.6978 38.2205 27.8281C34.231 25.9584 30.508 25.4858 29.9051 26.7724C29.3021 28.059 32.0474 30.6177 36.037 32.4874C40.0264 34.357 43.7494 34.8297 44.3524 33.543Z" fill="url(#paint9_linear_169_4082)"/>
<path d="M35.9605 43.0365C37.1634 42.2802 36.2374 38.6434 33.8922 34.9135C31.547 31.1836 28.6707 28.7731 27.4678 29.5294C26.2649 30.2857 27.1909 33.9226 29.5361 37.6524C31.8813 41.3823 34.7576 43.7929 35.9605 43.0365Z" fill="url(#paint10_linear_169_4082)"/>
<path d="M61.872 33.5V16.58H73.272V19.004H64.848V23.684H72.72V26.132H64.848V31.052H73.272V33.5H61.872ZM80.4683 33.74C79.4123 33.74 78.4843 33.492 77.6842 32.996C76.8843 32.484 76.2603 31.756 75.8123 30.812C75.3643 29.868 75.1403 28.74 75.1403 27.428C75.1403 26.116 75.3643 24.996 75.8123 24.068C76.2603 23.124 76.8843 22.404 77.6842 21.908C78.4843 21.396 79.4123 21.14 80.4683 21.14C81.4923 21.14 82.3883 21.396 83.1563 21.908C83.9403 22.404 84.4603 23.076 84.7163 23.924H84.4523L84.7163 21.38H87.5963C87.5483 21.876 87.5003 22.38 87.4523 22.892C87.4203 23.404 87.4043 23.908 87.4043 24.404V33.5H84.4283L84.4043 31.004H84.6923C84.4363 31.836 83.9163 32.5 83.1323 32.996C82.3483 33.492 81.4603 33.74 80.4683 33.74ZM81.3083 31.436C82.2523 31.436 83.0123 31.108 83.5883 30.452C84.1643 29.78 84.4523 28.772 84.4523 27.428C84.4523 26.084 84.1643 25.084 83.5883 24.428C83.0123 23.772 82.2523 23.444 81.3083 23.444C80.3643 23.444 79.6043 23.772 79.0283 24.428C78.4523 25.084 78.1643 26.084 78.1643 27.428C78.1643 28.772 78.4443 29.78 79.0043 30.452C79.5803 31.108 80.3483 31.436 81.3083 31.436ZM94.9911 33.74C93.9511 33.74 92.9911 33.62 92.1111 33.38C91.2471 33.124 90.5191 32.772 89.9271 32.324L90.7671 30.308C91.3751 30.724 92.0471 31.044 92.7831 31.268C93.5191 31.492 94.2631 31.604 95.0151 31.604C95.8151 31.604 96.4071 31.468 96.7911 31.196C97.1911 30.924 97.3911 30.556 97.3911 30.092C97.3911 29.724 97.2631 29.436 97.0071 29.228C96.7671 29.004 96.3751 28.836 95.8311 28.724L93.4311 28.268C92.4071 28.044 91.6231 27.66 91.0791 27.116C90.5511 26.572 90.2871 25.86 90.2871 24.98C90.2871 24.228 90.4871 23.564 90.8871 22.988C91.3031 22.412 91.8871 21.964 92.6391 21.644C93.4071 21.308 94.3031 21.14 95.3271 21.14C96.2231 21.14 97.0631 21.26 97.8471 21.5C98.6471 21.74 99.3191 22.1 99.8631 22.58L98.9991 24.524C98.5031 24.124 97.9351 23.812 97.2951 23.588C96.6551 23.364 96.0311 23.252 95.4231 23.252C94.5911 23.252 93.9831 23.404 93.5991 23.708C93.2151 23.996 93.0231 24.372 93.0231 24.836C93.0231 25.188 93.1351 25.484 93.3591 25.724C93.5991 25.948 93.9671 26.116 94.4631 26.228L96.8631 26.684C97.9351 26.892 98.7431 27.26 99.2871 27.788C99.8471 28.3 100.127 29.004 100.127 29.9C100.127 30.7 99.9111 31.388 99.4791 31.964C99.0471 32.54 98.4471 32.98 97.6791 33.284C96.9111 33.588 96.0151 33.74 94.9911 33.74ZM102.22 38.948L101.524 36.572C102.276 36.412 102.908 36.228 103.42 36.02C103.932 35.812 104.356 35.54 104.692 35.204C105.028 34.868 105.308 34.436 105.532 33.908L106.132 32.492L106.06 33.668L100.78 21.38H103.972L107.764 30.836H107.068L110.884 21.38H113.908L108.388 34.172C108.02 35.036 107.62 35.748 107.188 36.308C106.756 36.884 106.292 37.34 105.796 37.676C105.3 38.028 104.756 38.3 104.164 38.492C103.572 38.684 102.924 38.836 102.22 38.948ZM122.341 33.5V16.58H125.053L131.269 30.572H130.525L136.741 16.58H139.429V33.5H136.621V20.948H137.485L131.797 33.5H129.949L124.261 20.948H125.149V33.5H122.341ZM148.816 33.74C146.784 33.74 145.192 33.18 144.04 32.06C142.888 30.94 142.312 29.404 142.312 27.452C142.312 26.188 142.56 25.084 143.056 24.14C143.552 23.196 144.24 22.46 145.12 21.932C146.016 21.404 147.056 21.14 148.24 21.14C149.408 21.14 150.384 21.388 151.168 21.884C151.952 22.38 152.544 23.076 152.944 23.972C153.36 24.868 153.568 25.916 153.568 27.116V27.908H144.736V26.324H151.432L151.024 26.66C151.024 25.54 150.784 24.684 150.304 24.092C149.84 23.5 149.16 23.204 148.264 23.204C147.272 23.204 146.504 23.556 145.96 24.26C145.432 24.964 145.168 25.948 145.168 27.212V27.524C145.168 28.836 145.488 29.82 146.128 30.476C146.784 31.116 147.704 31.436 148.888 31.436C149.576 31.436 150.216 31.348 150.808 31.172C151.416 30.98 151.992 30.676 152.536 30.26L153.424 32.276C152.848 32.74 152.16 33.1 151.36 33.356C150.56 33.612 149.712 33.74 148.816 33.74ZM160.789 33.74C159.733 33.74 158.805 33.492 158.005 32.996C157.205 32.484 156.581 31.756 156.133 30.812C155.685 29.868 155.461 28.74 155.461 27.428C155.461 26.116 155.685 24.996 156.133 24.068C156.581 23.124 157.205 22.404 158.005 21.908C158.805 21.396 159.733 21.14 160.789 21.14C161.813 21.14 162.709 21.396 163.477 21.908C164.261 22.404 164.781 23.076 165.037 23.924H164.773L165.037 21.38H167.917C167.869 21.876 167.821 22.38 167.773 22.892C167.741 23.404 167.725 23.908 167.725 24.404V33.5H164.749L164.725 31.004H165.013C164.757 31.836 164.237 32.5 163.453 32.996C162.669 33.492 161.781 33.74 160.789 33.74ZM161.629 31.436C162.573 31.436 163.333 31.108 163.909 30.452C164.485 29.78 164.773 28.772 164.773 27.428C164.773 26.084 164.485 25.084 163.909 24.428C163.333 23.772 162.573 23.444 161.629 23.444C160.685 23.444 159.925 23.772 159.349 24.428C158.773 25.084 158.485 26.084 158.485 27.428C158.485 28.772 158.765 29.78 159.325 30.452C159.901 31.108 160.669 31.436 161.629 31.436ZM170.991 33.5V15.836H173.991V33.5H170.991Z" fill="url(#paint11_linear_169_4082)"/>
<defs>
<linearGradient id="paint0_linear_169_4082" x1="26.2367" y1="26.0108" x2="20.1719" y2="26.4163" gradientUnits="userSpaceOnUse">
<stop stop-color="#5E9319"/>
<stop offset="1" stop-color="#264400"/>
</linearGradient>
<linearGradient id="paint1_linear_169_4082" x1="20.55" y1="25.4403" x2="9.24973" y2="27.1163" gradientUnits="userSpaceOnUse">
<stop stop-color="#5E9319"/>
<stop offset="1" stop-color="#264400"/>
</linearGradient>
<linearGradient id="paint2_linear_169_4082" x1="17.5515" y1="23.624" x2="2.33116" y2="29.4242" gradientUnits="userSpaceOnUse">
<stop stop-color="#5E9319"/>
<stop offset="1" stop-color="#264400"/>
</linearGradient>
<linearGradient id="paint3_linear_169_4082" x1="16.9627" y1="17.3864" x2="2.98747" y2="25.4995" gradientUnits="userSpaceOnUse">
<stop stop-color="#5E9319"/>
<stop offset="1" stop-color="#264400"/>
</linearGradient>
<linearGradient id="paint4_linear_169_4082" x1="18.8824" y1="5.57407" x2="4.90072" y2="8.77662" gradientUnits="userSpaceOnUse">
<stop stop-color="#5E9319"/>
<stop offset="1" stop-color="#264400"/>
</linearGradient>
<linearGradient id="paint5_linear_169_4082" x1="23.0983" y1="-2.03812" x2="15.3639" y2="-1.35329" gradientUnits="userSpaceOnUse">
<stop stop-color="#5E9319"/>
<stop offset="1" stop-color="#264400"/>
</linearGradient>
<linearGradient id="paint6_linear_169_4082" x1="31.3481" y1="-1.89367" x2="23.404" y2="-1.16711" gradientUnits="userSpaceOnUse">
<stop stop-color="#5E9319"/>
<stop offset="1" stop-color="#264400"/>
</linearGradient>
<linearGradient id="paint7_linear_169_4082" x1="40.8855" y1="5.94756" x2="26.752" y2="9.28959" gradientUnits="userSpaceOnUse">
<stop stop-color="#5E9319"/>
<stop offset="1" stop-color="#264400"/>
</linearGradient>
<linearGradient id="paint8_linear_169_4082" x1="45.6955" y1="17.7496" x2="31.8482" y2="25.9744" gradientUnits="userSpaceOnUse">
<stop stop-color="#5E9319"/>
<stop offset="1" stop-color="#264400"/>
</linearGradient>
<linearGradient id="paint9_linear_169_4082" x1="43.8844" y1="23.7189" x2="28.6577" y2="29.3291" gradientUnits="userSpaceOnUse">
<stop stop-color="#5E9319"/>
<stop offset="1" stop-color="#264400"/>
</linearGradient>
<linearGradient id="paint10_linear_169_4082" x1="36.1275" y1="25.485" x2="25.0578" y2="27.0738" gradientUnits="userSpaceOnUse">
<stop stop-color="#5E9319"/>
<stop offset="1" stop-color="#264400"/>
</linearGradient>
<linearGradient id="paint11_linear_169_4082" x1="171.626" y1="1.28334" x2="90.2618" y2="68.7313" gradientUnits="userSpaceOnUse">
<stop stop-color="#5E9319"/>
<stop offset="1" stop-color="#264400"/>
</linearGradient>
</defs>
</svg>
