<svg width="42" height="42" viewBox="0 0 42 42" fill="none" xmlns="http://www.w3.org/2000/svg">
<path d="M21 15.3125C19.4916 15.3125 18.0449 15.9117 16.9783 16.9783C15.9117 18.0449 15.3125 19.4916 15.3125 21C15.3125 22.5084 15.9117 23.9551 16.9783 25.0217C18.0449 26.0883 19.4916 26.6875 21 26.6875C22.5084 26.6875 23.9551 26.0883 25.0217 25.0217C26.0883 23.9551 26.6875 22.5084 26.6875 21C26.6875 19.4916 26.0883 18.0449 25.0217 16.9783C23.9551 15.9117 22.5084 15.3125 21 15.3125Z" fill="#FDFDFD"/>
<path fill-rule="evenodd" clip-rule="evenodd" d="M11.8476 5.3934C17.9306 4.71913 24.0695 4.71913 30.1526 5.3934C33.4758 5.7644 36.1551 8.38065 36.5453 11.7161C37.2667 17.8843 37.2667 24.1155 36.5453 30.2836C36.1551 33.6191 33.4758 36.2354 30.1543 36.6081C24.0707 37.2826 17.9312 37.2826 11.8476 36.6081C8.5243 36.2354 5.84505 33.6191 5.4548 30.2854C4.73333 24.1167 4.73333 17.8849 5.4548 11.7161C5.84505 8.38065 8.5243 5.7644 11.8476 5.3934ZM29.7501 10.4999C29.2859 10.4999 28.8408 10.6843 28.5126 11.0125C28.1844 11.3407 28.0001 11.7858 28.0001 12.2499C28.0001 12.714 28.1844 13.1591 28.5126 13.4873C28.8408 13.8155 29.2859 13.9999 29.7501 13.9999C30.2142 13.9999 30.6593 13.8155 30.9875 13.4873C31.3157 13.1591 31.5001 12.714 31.5001 12.2499C31.5001 11.7858 31.3157 11.3407 30.9875 11.0125C30.6593 10.6843 30.2142 10.4999 29.7501 10.4999ZM12.6876 20.9999C12.6876 18.7953 13.5633 16.681 15.1222 15.1221C16.6811 13.5632 18.7954 12.6874 21.0001 12.6874C23.2047 12.6874 25.319 13.5632 26.8779 15.1221C28.4368 16.681 29.3126 18.7953 29.3126 20.9999C29.3126 23.2045 28.4368 25.3188 26.8779 26.8777C25.319 28.4366 23.2047 29.3124 21.0001 29.3124C18.7954 29.3124 16.6811 28.4366 15.1222 26.8777C13.5633 25.3188 12.6876 23.2045 12.6876 20.9999Z" fill="#FDFDFD"/>
</svg>
