<svg width="20" height="24" viewBox="0 0 20 24" fill="none" xmlns="http://www.w3.org/2000/svg">
<path d="M9.99955 0.04245C7.3535 0.045361 4.81663 1.09773 2.94549 2.96868C1.07435 4.83963 0.0217309 7.37639 0.0185547 10.0225C0.0185547 12.5925 2.00855 16.6145 5.93355 21.9765C6.40081 22.6166 7.01261 23.1373 7.71916 23.4964C8.4257 23.8554 9.20703 24.0425 9.99955 24.0425C10.7921 24.0425 11.5734 23.8554 12.28 23.4964C12.9865 23.1373 13.5983 22.6166 14.0656 21.9765C17.9906 16.6145 19.9806 12.5925 19.9806 10.0225C19.9774 7.37639 18.9248 4.83963 17.0536 2.96868C15.1825 1.09773 12.6456 0.045361 9.99955 0.04245ZM9.99955 14.0005C9.20843 14.0005 8.43507 13.7659 7.77727 13.3263C7.11948 12.8868 6.60679 12.2621 6.30404 11.5312C6.00129 10.8003 5.92207 9.99601 6.07641 9.22009C6.23075 8.44417 6.61172 7.73143 7.17113 7.17202C7.73054 6.61261 8.44327 6.23165 9.21919 6.07731C9.99512 5.92297 10.7994 6.00218 11.5303 6.30493C12.2612 6.60768 12.8859 7.12037 13.3254 7.77817C13.765 8.43597 13.9996 9.20933 13.9996 10.0005C13.9996 11.0613 13.5781 12.0787 12.828 12.8289C12.0778 13.579 11.0604 14.0005 9.99955 14.0005Z" fill="#437008"/>
</svg>
