<svg width="176" height="48" viewBox="0 0 176 48" fill="none" xmlns="http://www.w3.org/2000/svg">
<path d="M26.4297 38.5339C26.4728 34.1282 25.3559 30.5455 23.9351 30.5315C22.5142 30.5177 21.3274 34.078 21.2844 38.4836C21.2413 42.8893 22.3583 46.4721 23.7791 46.486C25.2 46.4999 26.3867 42.9396 26.4297 38.5339Z" fill="#FDFDFD"/>
<path d="M18.1892 37.5333C20.6076 33.8504 21.6051 30.2325 20.4174 29.4526C19.2296 28.6727 16.3063 31.0261 13.888 34.709C11.4697 38.3919 10.4722 42.0097 11.6599 42.7897C12.8477 43.5696 15.7709 41.2163 18.1892 37.5333Z" fill="#FDFDFD"/>
<path d="M11.7882 32.2493C15.8138 30.4587 18.609 27.9546 18.0315 26.6563C17.4541 25.358 13.7226 25.7572 9.69689 27.5479C5.67126 29.3385 2.876 31.8425 3.45349 33.1408C4.03097 34.4391 7.76253 34.04 11.7882 32.2493Z" fill="#FDFDFD"/>
<path d="M17.5484 23.0155C17.7646 21.6112 14.4097 19.9293 10.0551 19.2591C5.70043 18.5888 1.99508 19.184 1.77893 20.5884C1.56277 21.9927 4.91767 23.6745 9.2723 24.3448C13.6269 25.015 17.3323 24.4198 17.5484 23.0155Z" fill="#FDFDFD"/>
<path d="M19.1119 19.6699C20.0529 18.6053 18.1394 15.3769 14.8381 12.4592C11.5367 9.54147 8.09763 8.0393 7.15666 9.104C6.21569 10.1687 8.12916 13.3971 11.4305 16.3148C14.7319 19.2326 18.171 20.7347 19.1119 19.6699Z" fill="#FDFDFD"/>
<path d="M22.2254 17.7147C23.5926 17.3278 23.7285 13.5774 22.5288 9.33796C21.3292 5.09851 19.2483 1.9754 17.8811 2.36229C16.5139 2.74918 16.378 6.49955 17.5776 10.739C18.7773 14.9784 20.8582 18.1016 22.2254 17.7147Z" fill="#FDFDFD"/>
<path d="M30.6802 10.871C31.9633 6.65598 31.9014 2.90365 30.5421 2.48988C29.1827 2.0761 27.0407 5.15757 25.7576 9.37253C24.4747 13.5875 24.5365 17.3398 25.8959 17.7536C27.2552 18.1673 29.3973 15.0859 30.6802 10.871Z" fill="#FDFDFD"/>
<path d="M36.7211 16.5663C40.0789 13.7136 42.0552 10.5233 41.1351 9.44041C40.2151 8.35753 36.7473 9.79222 33.3896 12.6448C30.0318 15.4974 28.0557 18.6878 28.9757 19.7707C29.8956 20.8535 33.3634 19.4189 36.7211 16.5663Z" fill="#FDFDFD"/>
<path d="M38.7187 24.6258C43.0857 24.0415 46.4731 22.4262 46.2847 21.0178C46.0963 19.6095 42.4034 18.9414 38.0363 19.5256C33.6694 20.1099 30.2819 21.7252 30.4704 23.1336C30.6588 24.5419 34.3517 25.2101 38.7187 24.6258Z" fill="#FDFDFD"/>
<path d="M44.3522 33.5433C44.9551 32.2568 42.2098 29.6981 38.2202 27.8284C34.2308 25.9587 30.5078 25.4861 29.9048 26.7727C29.3018 28.0593 32.0472 30.618 36.0367 32.4877C40.0262 34.3573 43.7492 34.83 44.3522 33.5433Z" fill="#FDFDFD"/>
<path d="M35.9606 43.0367C37.1635 42.2804 36.2375 38.6435 33.8923 34.9137C31.5471 31.1838 28.6708 28.7733 27.4679 29.5296C26.265 30.2859 27.191 33.9227 29.5362 37.6526C31.8814 41.3825 34.7578 43.7931 35.9606 43.0367Z" fill="#FDFDFD"/>
<path d="M61.872 33.5V16.58H73.272V19.004H64.848V23.684H72.72V26.132H64.848V31.052H73.272V33.5H61.872ZM80.4683 33.74C79.4123 33.74 78.4843 33.492 77.6842 32.996C76.8843 32.484 76.2603 31.756 75.8123 30.812C75.3643 29.868 75.1403 28.74 75.1403 27.428C75.1403 26.116 75.3643 24.996 75.8123 24.068C76.2603 23.124 76.8843 22.404 77.6842 21.908C78.4843 21.396 79.4123 21.14 80.4683 21.14C81.4923 21.14 82.3883 21.396 83.1563 21.908C83.9403 22.404 84.4603 23.076 84.7163 23.924H84.4523L84.7163 21.38H87.5963C87.5483 21.876 87.5003 22.38 87.4523 22.892C87.4203 23.404 87.4043 23.908 87.4043 24.404V33.5H84.4283L84.4043 31.004H84.6923C84.4363 31.836 83.9163 32.5 83.1323 32.996C82.3483 33.492 81.4603 33.74 80.4683 33.74ZM81.3083 31.436C82.2523 31.436 83.0123 31.108 83.5883 30.452C84.1643 29.78 84.4523 28.772 84.4523 27.428C84.4523 26.084 84.1643 25.084 83.5883 24.428C83.0123 23.772 82.2523 23.444 81.3083 23.444C80.3643 23.444 79.6043 23.772 79.0283 24.428C78.4523 25.084 78.1643 26.084 78.1643 27.428C78.1643 28.772 78.4443 29.78 79.0043 30.452C79.5803 31.108 80.3483 31.436 81.3083 31.436ZM94.9911 33.74C93.9511 33.74 92.9911 33.62 92.1111 33.38C91.2471 33.124 90.5191 32.772 89.9271 32.324L90.7671 30.308C91.3751 30.724 92.0471 31.044 92.7831 31.268C93.5191 31.492 94.2631 31.604 95.0151 31.604C95.8151 31.604 96.4071 31.468 96.7911 31.196C97.1911 30.924 97.3911 30.556 97.3911 30.092C97.3911 29.724 97.2631 29.436 97.0071 29.228C96.7671 29.004 96.3751 28.836 95.8311 28.724L93.4311 28.268C92.4071 28.044 91.6231 27.66 91.0791 27.116C90.5511 26.572 90.2871 25.86 90.2871 24.98C90.2871 24.228 90.4871 23.564 90.8871 22.988C91.3031 22.412 91.8871 21.964 92.6391 21.644C93.4071 21.308 94.3031 21.14 95.3271 21.14C96.2231 21.14 97.0631 21.26 97.8471 21.5C98.6471 21.74 99.3191 22.1 99.8631 22.58L98.9991 24.524C98.5031 24.124 97.9351 23.812 97.2951 23.588C96.6551 23.364 96.0311 23.252 95.4231 23.252C94.5911 23.252 93.9831 23.404 93.5991 23.708C93.2151 23.996 93.0231 24.372 93.0231 24.836C93.0231 25.188 93.1351 25.484 93.3591 25.724C93.5991 25.948 93.9671 26.116 94.4631 26.228L96.8631 26.684C97.9351 26.892 98.7431 27.26 99.2871 27.788C99.8471 28.3 100.127 29.004 100.127 29.9C100.127 30.7 99.9111 31.388 99.4791 31.964C99.0471 32.54 98.4471 32.98 97.6791 33.284C96.9111 33.588 96.0151 33.74 94.9911 33.74ZM102.22 38.948L101.524 36.572C102.276 36.412 102.908 36.228 103.42 36.02C103.932 35.812 104.356 35.54 104.692 35.204C105.028 34.868 105.308 34.436 105.532 33.908L106.132 32.492L106.06 33.668L100.78 21.38H103.972L107.764 30.836H107.068L110.884 21.38H113.908L108.388 34.172C108.02 35.036 107.62 35.748 107.188 36.308C106.756 36.884 106.292 37.34 105.796 37.676C105.3 38.028 104.756 38.3 104.164 38.492C103.572 38.684 102.924 38.836 102.22 38.948ZM122.341 33.5V16.58H125.053L131.269 30.572H130.525L136.741 16.58H139.429V33.5H136.621V20.948H137.485L131.797 33.5H129.949L124.261 20.948H125.149V33.5H122.341ZM148.816 33.74C146.784 33.74 145.192 33.18 144.04 32.06C142.888 30.94 142.312 29.404 142.312 27.452C142.312 26.188 142.56 25.084 143.056 24.14C143.552 23.196 144.24 22.46 145.12 21.932C146.016 21.404 147.056 21.14 148.24 21.14C149.408 21.14 150.384 21.388 151.168 21.884C151.952 22.38 152.544 23.076 152.944 23.972C153.36 24.868 153.568 25.916 153.568 27.116V27.908H144.736V26.324H151.432L151.024 26.66C151.024 25.54 150.784 24.684 150.304 24.092C149.84 23.5 149.16 23.204 148.264 23.204C147.272 23.204 146.504 23.556 145.96 24.26C145.432 24.964 145.168 25.948 145.168 27.212V27.524C145.168 28.836 145.488 29.82 146.128 30.476C146.784 31.116 147.704 31.436 148.888 31.436C149.576 31.436 150.216 31.348 150.808 31.172C151.416 30.98 151.992 30.676 152.536 30.26L153.424 32.276C152.848 32.74 152.16 33.1 151.36 33.356C150.56 33.612 149.712 33.74 148.816 33.74ZM160.789 33.74C159.733 33.74 158.805 33.492 158.005 32.996C157.205 32.484 156.581 31.756 156.133 30.812C155.685 29.868 155.461 28.74 155.461 27.428C155.461 26.116 155.685 24.996 156.133 24.068C156.581 23.124 157.205 22.404 158.005 21.908C158.805 21.396 159.733 21.14 160.789 21.14C161.813 21.14 162.709 21.396 163.477 21.908C164.261 22.404 164.781 23.076 165.037 23.924H164.773L165.037 21.38H167.917C167.869 21.876 167.821 22.38 167.773 22.892C167.741 23.404 167.725 23.908 167.725 24.404V33.5H164.749L164.725 31.004H165.013C164.757 31.836 164.237 32.5 163.453 32.996C162.669 33.492 161.781 33.74 160.789 33.74ZM161.629 31.436C162.573 31.436 163.333 31.108 163.909 30.452C164.485 29.78 164.773 28.772 164.773 27.428C164.773 26.084 164.485 25.084 163.909 24.428C163.333 23.772 162.573 23.444 161.629 23.444C160.685 23.444 159.925 23.772 159.349 24.428C158.773 25.084 158.485 26.084 158.485 27.428C158.485 28.772 158.765 29.78 159.325 30.452C159.901 31.108 160.669 31.436 161.629 31.436ZM170.991 33.5V15.836H173.991V33.5H170.991Z" fill="#FDFDFD"/>
</svg>
