<svg width="64" height="64" viewBox="0 0 64 64" fill="none" xmlns="http://www.w3.org/2000/svg">
<mask id="mask0_672_7388" style="mask-type:alpha" maskUnits="userSpaceOnUse" x="0" y="0" width="64" height="64">
<circle cx="32" cy="32" r="32" fill="#D9D9D9"/>
</mask>
<g mask="url(#mask0_672_7388)">
<circle cx="32" cy="32" r="32" fill="#022651"/>
<path fill-rule="evenodd" clip-rule="evenodd" d="M36.358 43.5848C37.5586 43.5848 38.7476 43.3483 39.8568 42.8889C40.9661 42.4293 41.974 41.756 42.823 40.907C43.672 40.0579 44.3454 39.05 44.8049 37.9407C45.2643 36.8315 45.5008 35.6426 45.5008 34.4419C45.5008 30.8047 44.0559 27.3164 41.484 24.7445C38.9121 22.1726 35.4238 20.7277 31.7866 20.7277C28.1493 20.7277 24.661 22.1726 22.0891 24.7445C19.5172 27.3164 18.0723 30.8047 18.0723 34.4419C18.0723 35.6426 18.3088 36.8315 18.7682 37.9407C19.2277 39.05 19.9012 40.0579 20.7501 40.907C21.5991 41.756 22.607 42.4293 23.7163 42.8889C24.8255 43.3483 26.0145 43.5848 27.2151 43.5848H36.358ZM31.7866 24.3848C29.1192 24.3848 26.5611 25.4444 24.6751 27.3305C22.789 29.2165 21.7294 31.7746 21.7294 34.4419C21.7294 35.1623 21.8713 35.8756 22.147 36.5412C22.4227 37.2068 22.8267 37.8115 23.3362 38.3209C23.8455 38.8303 24.4502 39.2344 25.1158 39.5101C25.7814 39.7858 26.4948 39.9277 27.2151 39.9277H36.358C37.0783 39.9277 37.7917 39.7858 38.4573 39.5101C39.1229 39.2344 39.7276 38.8303 40.2369 38.3209C40.7464 37.8115 41.1504 37.2068 41.4261 36.5412C41.7018 35.8756 41.8437 35.1623 41.8437 34.4419C41.8437 31.7746 40.7841 29.2165 38.898 27.3305C37.012 25.4444 34.4539 24.3848 31.7866 24.3848Z" fill="#008252"/>
<path fill-rule="evenodd" clip-rule="evenodd" d="M25.3857 48C23.8248 48 22.2793 47.6453 20.8373 46.9561C19.3952 46.2669 18.085 45.2567 16.9812 43.9832C15.8776 42.7097 15.0021 41.1979 14.4047 39.534C13.8074 37.8701 13.5 36.0867 13.5 34.2857C13.5 29.4361 15.4265 24.785 18.8558 21.3558C22.285 17.9265 26.9361 16 31.7857 16C36.6354 16 41.2864 17.9265 44.7156 21.3558C48.1449 24.785 50.0714 29.4361 50.0714 34.2857C50.0714 36.0867 49.764 37.8701 49.1667 39.534C48.5694 41.1979 47.6938 42.7097 46.5902 43.9832C45.4865 45.2567 44.1762 46.2669 42.7342 46.9561C41.2921 47.6453 39.7466 48 38.1857 48H25.3857ZM21.4418 23.9418C24.1852 21.1984 27.9059 19.6571 31.7857 19.6571C35.6655 19.6571 39.3863 21.1984 42.1297 23.9418C44.8731 26.6852 46.4143 30.4059 46.4143 34.2857C46.4143 35.6735 46.1769 37.0384 45.7246 38.2983C45.2723 39.5582 44.6201 40.6724 43.8265 41.588C43.0338 42.5027 42.1213 43.1956 41.1571 43.6564C40.1954 44.1161 39.1875 44.3429 38.1857 44.3429H25.3857C24.3839 44.3429 23.376 44.1161 22.4143 43.6564C21.4502 43.1956 20.5376 42.5027 19.7449 41.588C18.9514 40.6724 18.2991 39.5582 17.8468 38.2983C17.3945 37.0384 17.1571 35.6735 17.1571 34.2857C17.1571 30.4059 18.6984 26.6852 21.4418 23.9418Z" fill="#008252"/>
<path d="M36.3569 39.1688H31.7814C31.4742 39.1685 31.1693 39.1372 30.8712 39.0764C30.2933 38.9585 29.7408 38.7292 29.2457 38.3983C28.4939 37.896 27.9079 37.1821 27.562 36.3467C27.4498 36.0758 27.3644 35.7961 27.3063 35.5116C27.1853 34.9187 27.1826 34.3047 27.3019 33.7054C27.4782 32.8187 27.9136 32.0041 28.553 31.3649C29.1922 30.7255 30.0068 30.2901 30.8935 30.1138C30.9213 30.1082 30.949 30.103 30.9768 30.0979C31.2448 30.0499 31.5154 30.0259 31.7854 30.0259C32.3829 30.0259 32.9775 30.143 33.5348 30.3739C34.3701 30.7198 35.0841 31.3058 35.5864 32.0575C36.0888 32.8093 36.3569 33.6932 36.3569 34.5973H32.6997C32.6997 34.4165 32.6461 34.2397 32.5457 34.0893C32.4452 33.939 32.3024 33.8218 32.1353 33.7526C31.9683 33.6834 31.7844 33.6653 31.6071 33.7006C31.4297 33.7359 31.2668 33.8229 31.1389 33.9508C31.011 34.0787 30.924 34.2416 30.8887 34.4189C30.8534 34.5963 30.8715 34.7802 30.9407 34.9472C31.0099 35.1143 31.1272 35.2571 31.2775 35.3576C31.4279 35.458 31.6046 35.5116 31.7854 35.5116H36.3569C36.4769 35.5116 36.5959 35.4879 36.7068 35.442C36.8177 35.396 36.9184 35.3288 37.0034 35.2438C37.0883 35.1589 37.1556 35.0581 37.2016 34.9472C37.2475 34.8363 37.2712 34.7174 37.2712 34.5973C37.2712 33.1424 36.6932 31.7471 35.6644 30.7184C34.6356 29.6895 33.2403 29.1116 31.7854 29.1116C31.6276 29.1116 31.4706 29.1184 31.3146 29.1318C30.9312 29.1648 30.5543 29.238 30.19 29.3488C29.8315 29.4577 29.4851 29.6031 29.1562 29.7827C28.7795 29.9884 28.4259 30.2389 28.1036 30.5308C28.0365 30.5915 27.9708 30.654 27.9065 30.7184C27.4564 31.1684 27.0926 31.6887 26.8257 32.2534C26.6923 32.5357 26.5831 32.8291 26.4995 33.1304C26.4039 33.4749 26.3417 33.8297 26.3149 34.1899C26.3048 34.3251 26.2997 34.4609 26.2997 34.5973C26.2997 35.3142 26.4402 36.0278 26.7173 36.6966C27.1325 37.699 27.8356 38.5557 28.7378 39.1585C28.7429 39.162 28.748 39.1654 28.7531 39.1688H27.214C26.6137 39.1688 26.0192 39.0505 25.4646 38.8208C24.91 38.591 24.4061 38.2543 23.9816 37.8298C23.557 37.4053 23.2203 36.9013 22.9906 36.3467C22.7608 35.7921 22.6426 35.1976 22.6426 34.5973C22.6426 32.1725 23.6059 29.847 25.3204 28.1323C27.0351 26.4178 29.3606 25.4545 31.7854 25.4545C34.2103 25.4545 36.5358 26.4178 38.2504 28.1323C39.965 29.847 40.9283 32.1725 40.9283 34.5973C40.9283 35.1976 40.8101 35.7921 40.5803 36.3467C40.3506 36.9013 40.0138 37.4053 39.5893 37.8298C39.1648 38.2543 38.6609 38.591 38.1063 38.8208C37.5517 39.0505 36.9572 39.1688 36.3569 39.1688Z" fill="#ADE9D6"/>
</g>
</svg>
