<svg width="20" height="20" viewBox="0 0 20 20" fill="none" xmlns="http://www.w3.org/2000/svg">
<path d="M8.01416 0.953171C3.59586 0.953171 0.0141602 4.53518 0.0141602 8.95319C0.0141602 13.3712 3.59586 16.9532 8.01416 16.9532C9.85086 16.9532 11.5918 16.3222 12.9421 15.2822L17.2954 19.6722C17.686 20.0622 18.3424 20.0622 18.733 19.6722C19.1235 19.2812 19.1235 18.6252 18.733 18.2342L14.3495 13.8742C15.3903 12.5242 16.0142 10.7902 16.0142 8.95319C16.0142 4.53518 12.4325 0.953171 8.01416 0.953171ZM8.01416 2.95318C11.3279 2.95318 14.0142 5.63918 14.0142 8.95319C14.0142 12.2672 11.3279 14.9532 8.01416 14.9532C4.70046 14.9532 2.01416 12.2672 2.01416 8.95319C2.01416 5.63918 4.70046 2.95318 8.01416 2.95318Z" fill="#78A83A"/>
</svg>
